<?xml version="1.0" encoding="UTF-8" standalone="no"?>
<svg
   width="24.059"
   height="24.059"
   version="1.1"
   xml:space="preserve"
   id="svg29"
   sodipodi:docname="favicon.svg"
   inkscape:version="1.1 (c68e22c387, 2021-05-23)"
   xmlns:inkscape="http://www.inkscape.org/namespaces/inkscape"
   xmlns:sodipodi="http://sodipodi.sourceforge.net/DTD/sodipodi-0.dtd"
   xmlns="http://www.w3.org/2000/svg"
   xmlns:svg="http://www.w3.org/2000/svg"><defs
   id="defs33" /><sodipodi:namedview
   id="namedview31"
   pagecolor="#ffffff"
   bordercolor="#666666"
   borderopacity="1.0"
   inkscape:pageshadow="2"
   inkscape:pageopacity="0.0"
   inkscape:pagecheckerboard="0"
   showgrid="false"
   inkscape:zoom="13.46875"
   inkscape:cx="23.238979"
   inkscape:cy="10.060325"
   inkscape:window-width="1920"
   inkscape:window-height="1051"
   inkscape:window-x="-9"
   inkscape:window-y="-9"
   inkscape:window-maximized="1"
   inkscape:current-layer="svg29" />
 <g
   id="g27"
   transform="matrix(0.04699021,0,0,0.04699021,8.392451e-4,6.2476294e-6)">
  <title
   id="title2">Layer 1</title>
  <g
   id="svg_25">
   <polygon
   points="511.98212,413.14772 511.98212,98.851974 339.41611,167.06905 339.41611,344.93071 "
   fill="#2b468b"
   id="svg_1" />
   <path
   d="m 314.98214,76 h -270 c -24.901,0 -45,20.099 -45,45 v 270 c 0,24.899 20.099,45 45,45 h 270 c 24.901,0 45,-20.101 45,-45 V 121 c 0,-24.901 -20.099,-45 -45,-45 z"
   fill="#699eee"
   id="svg_2" />
   <path
   d="m 359.98214,121 v 270 c 0,24.899 -20.099,45 -45,45 h -135 V 76 h 135 c 24.901,0 45,20.099 45,45 z"
   fill="#548ee2"
   id="svg_3" />
   <path
   d="m 179.98214,136 c -66.301,0 -120,53.699 -120,120 0,66.299 53.699,120 120,120 66.301,0 120,-53.701 120,-120 0,-66.301 -53.699,-120 -120,-120 z"
   fill="#ffc799"
   id="svg_4" />
   <path
   d="m 299.98214,256 c 0,66.299 -53.699,120 -120,120 V 136 c 66.301,0 120,53.699 120,120 z"
   fill="#fa9746"
   id="svg_5" />
   <path
   d="m 179.98214,196 c -32.999,0 -60,26.999 -60,60 0,32.999 27.001,60 60,60 32.999,0 60,-27.001 60,-60 0,-33.001 -27.001,-60 -60,-60 z"
   fill="#3aaaff"
   id="svg_6" />
   <path
   d="m 239.98214,256 c 0,32.999 -27.001,60 -60,60 V 196 c 32.999,0 60,26.999 60,60 z"
   fill="#0095ff"
   id="svg_7" />
   <g
   id="svg_8" />
   <g
   id="svg_9" />
   <g
   id="svg_10" />
   <g
   id="svg_11" />
   <g
   id="svg_12" />
   <g
   id="svg_13" />
   <g
   id="svg_14" />
   <g
   id="svg_15" />
   <g
   id="svg_16" />
   <g
   id="svg_17" />
   <g
   id="svg_18" />
   <g
   id="svg_19" />
   <g
   id="svg_20" />
   <g
   id="svg_21" />
   <g
   id="svg_22" />
  </g>
 </g>

</svg>
